<?xml version="1.0" encoding="UTF-8" standalone="no"?>
<!-- Created with Inkscape (http://www.inkscape.org/) -->
<svg
   xmlns:svg="http://www.w3.org/2000/svg"
   xmlns="http://www.w3.org/2000/svg"
   version="1.0"
   width="12"
   height="14"
   id="svg3828">
  <defs
     id="defs3830" />
  <g
     id="layer1">
    <g
       transform="translate(-2.013677,-0.894333)"
       style="fill:black"
       id="accessSymbol">
      <path
         d="M 6.1403295,3.6605578 C 6.7233613,3.6067297 7.1763388,3.1044287 7.1763388,2.516915 C 7.1763388,1.8845484 6.6605696,1.368779 6.0282028,1.368779 C 5.3958361,1.368779 4.8800895,1.8845484 4.8800895,2.516915 C 4.8800895,2.7097612 4.9338948,2.9070893 5.0236008,3.0730327 L 5.4326948,8.8294965 L 9.6460241,8.8306368 L 11.374158,12.879745 L 13.64306,11.989938 L 13.291718,11.153321 L 12.021944,11.611682 L 10.349873,7.7514055 L 6.4323928,7.7777265 L 6.3786104,7.0487201 L 9.2145552,7.0498491 L 9.2145552,5.9711992 L 6.2704294,5.9700475 L 6.1403295,3.6605578 z "
         style="fill:black;fill-rule:evenodd"
         id="person" />
      <path
         d="M 10.377836,11.916107 C 9.6667117,13.321843 8.1782951,14.24796 6.5906613,14.24796 C 4.2588079,14.24796 2.356941,12.346094 2.356941,10.01424 C 2.356941,8.3769752 3.3492263,6.8554976 4.8299109,6.1810378 L 4.9257296,7.4314588 C 4.0499501,7.9833225 3.5100721,8.9790748 3.5100721,10.022816 C 3.5100721,11.714411 4.8897376,13.094054 6.5813098,13.094054 C 8.1289145,13.094054 9.4485936,11.906368 9.628553,10.382735 L 10.377836,11.916107 z "
         style="fill:black;fill-rule:evenodd"
         id="wheel" />
    </g>
  </g>
</svg>
