<?xml version="1.0" encoding="UTF-8" standalone="no"?>
<!-- Created with Inkscape (http://www.inkscape.org/) -->

<svg
   xmlns:dc="http://purl.org/dc/elements/1.1/"
   xmlns:cc="http://creativecommons.org/ns#"
   xmlns:rdf="http://www.w3.org/1999/02/22-rdf-syntax-ns#"
   xmlns:svg="http://www.w3.org/2000/svg"
   xmlns="http://www.w3.org/2000/svg"
   xmlns:sodipodi="http://sodipodi.sourceforge.net/DTD/sodipodi-0.dtd"
   xmlns:inkscape="http://www.inkscape.org/namespaces/inkscape"
   id="svg5814"
   version="1.1"
   inkscape:version="0.91 r13725"
   width="32"
   height="32"
   viewBox="0 0 32 32"
   sodipodi:docname="levels.svg">
  <metadata
     id="metadata5820">
    <rdf:RDF>
      <cc:Work
         rdf:about="">
        <dc:format>image/svg+xml</dc:format>
        <dc:type
           rdf:resource="http://purl.org/dc/dcmitype/StillImage" />
        <dc:title></dc:title>
      </cc:Work>
    </rdf:RDF>
  </metadata>
  <defs
     id="defs5818" />
  <sodipodi:namedview
     pagecolor="#ffffff"
     bordercolor="#666666"
     borderopacity="1"
     objecttolerance="10"
     gridtolerance="10"
     guidetolerance="10"
     inkscape:pageopacity="0"
     inkscape:pageshadow="2"
     inkscape:window-width="1680"
     inkscape:window-height="988"
     id="namedview5816"
     showgrid="false"
     inkscape:zoom="9.4993711"
     inkscape:cx="12.85504"
     inkscape:cy="22.363659"
     inkscape:window-x="-8"
     inkscape:window-y="-8"
     inkscape:window-maximized="1"
     inkscape:current-layer="svg5814" />
  <path
     style="fill:#ffffff;fill-opacity:1"
     d="m 0,17.969251 0,-14.030748 12.694215,0 12.694215,0 0,14.030748 L 25.38843,32 12.694215,32 0,32 0,17.969251 Z m 7.6694215,11.199984 0,-1.353844 -3.1735537,0 -3.1735538,0 0,1.353844 0,1.353844 3.1735538,0 3.1735537,0 0,-1.353844 z m 7.9338845,0 0,-1.353844 -3.173554,0 -3.1735537,0 0,1.353844 0,1.353844 3.1735537,0 3.173554,0 0,-1.353844 z m 7.933884,0 0,-1.353844 -3.173553,0 -3.173554,0 0,1.353844 0,1.353844 3.173554,0 3.173553,0 0,-1.353844 z m -15.9206865,-7.199989 -0.079313,-1.415383 -3.107438,-0.06935 -3.1074381,-0.06935 0,1.484731 0,1.484735 3.1867515,0 3.1867515,0 -0.079313,-1.415382 z m 7.9868025,-0.06154 0,-1.476921 -3.173554,0 -3.1735537,0 0,1.476921 0,1.476921 3.1735537,0 3.173554,0 0,-1.476921 z m 7.933884,-0.0078 0,-1.484731 -3.107437,0.06934 -3.107438,0.06935 -0.07931,1.415382 -0.07931,1.415383 3.186751,0 3.186751,0 0,-1.484735 z m -15.9206865,-7.069114 -0.079313,-1.415383 -3.107438,-0.06935 -3.1074381,-0.06935 0,1.484733 0,1.484733 3.1867515,0 3.1867515,0 -0.079313,-1.415382 z m 7.9868025,-0.06154 0,-1.476921 -3.173554,0 -3.1735537,0 0,1.476921 0,1.476921 3.1735537,0 3.173554,0 0,-1.476921 z m 7.933884,-0.0078 0,-1.484732 -3.107437,0.06935 -3.107438,0.06935 -0.07931,1.415383 -0.07931,1.415382 3.186751,0 3.186751,0 0,-1.484733 z M 7.6694215,7.6307975 l 0,-1.4769209 -3.1735537,0 -3.1735538,0 0,1.4769209 0,1.4769209 3.1735538,0 3.1735537,0 0,-1.4769209 z m 7.9338845,0 0,-1.4769209 -3.173554,0 -3.1735537,0 0,1.4769209 0,1.4769209 3.1735537,0 3.173554,0 0,-1.4769209 z m 7.933884,0 0,-1.4769209 -3.173553,0 -3.173554,0 0,1.4769209 0,1.4769209 3.173554,0 3.173553,0 0,-1.4769209 z m 3.438017,9.3743455 0,-14.5435688 L 14.214876,2.4601958 1.4545455,2.4588173 3.7627282,1.2294086 6.0709131,0 19.035456,0 32,0 l 0,14.479012 0,14.479013 -2.300393,1.213273 c -1.265217,0.667299 -2.395796,1.250194 -2.512396,1.295321 -0.116603,0.04517 -0.212004,-6.462514 -0.212004,-14.461476 z"
     id="path6364"
     inkscape:connector-curvature="0" />
</svg>
