<?xml version="1.0" encoding="UTF-8" standalone="no"?>
<!-- Created with Inkscape (http://www.inkscape.org/) -->

<svg
   xmlns:dc="http://purl.org/dc/elements/1.1/"
   xmlns:cc="http://creativecommons.org/ns#"
   xmlns:rdf="http://www.w3.org/1999/02/22-rdf-syntax-ns#"
   xmlns:svg="http://www.w3.org/2000/svg"
   xmlns="http://www.w3.org/2000/svg"
   xmlns:sodipodi="http://sodipodi.sourceforge.net/DTD/sodipodi-0.dtd"
   xmlns:inkscape="http://www.inkscape.org/namespaces/inkscape"
   width="32"
   height="32"
   id="svg4699"
   version="1.1"
   inkscape:version="0.91 r13725"
   viewBox="0 0 32 32"
   sodipodi:docname="maxspeed.svg">
  <defs
     id="defs4701" />
  <sodipodi:namedview
     id="base"
     pagecolor="#ffffff"
     bordercolor="#666666"
     borderopacity="1.0"
     inkscape:pageopacity="0.0"
     inkscape:pageshadow="2"
     inkscape:zoom="15.836083"
     inkscape:cx="17.671563"
     inkscape:cy="15.540288"
     inkscape:current-layer="layer1"
     showgrid="true"
     inkscape:grid-bbox="true"
     inkscape:document-units="px"
     inkscape:window-width="1680"
     inkscape:window-height="988"
     inkscape:window-x="-8"
     inkscape:window-y="-8"
     inkscape:window-maximized="1" />
  <metadata
     id="metadata4704">
    <rdf:RDF>
      <cc:Work
         rdf:about="">
        <dc:format>image/svg+xml</dc:format>
        <dc:type
           rdf:resource="http://purl.org/dc/dcmitype/StillImage" />
        <dc:title></dc:title>
      </cc:Work>
    </rdf:RDF>
  </metadata>
  <g
     id="layer1"
     inkscape:label="Layer 1"
     inkscape:groupmode="layer">
    <path
       style="color:#000000;font-style:normal;font-variant:normal;font-weight:normal;font-stretch:normal;font-size:medium;line-height:normal;font-family:sans-serif;text-indent:0;text-align:start;text-decoration:none;text-decoration-line:none;text-decoration-style:solid;text-decoration-color:#000000;letter-spacing:normal;word-spacing:normal;text-transform:none;direction:ltr;block-progression:tb;writing-mode:lr-tb;baseline-shift:baseline;text-anchor:start;white-space:normal;clip-rule:nonzero;display:inline;overflow:visible;visibility:visible;opacity:1;isolation:auto;mix-blend-mode:normal;color-interpolation:sRGB;color-interpolation-filters:linearRGB;solid-color:#000000;solid-opacity:1;fill:#ffffff;fill-opacity:1;fill-rule:nonzero;stroke:none;stroke-width:2.53950453;stroke-linecap:butt;stroke-linejoin:miter;stroke-miterlimit:4;stroke-dasharray:none;stroke-dashoffset:4.54993868;stroke-opacity:1;color-rendering:auto;image-rendering:auto;shape-rendering:auto;text-rendering:auto;enable-background:accumulate"
       d="M 16,0 C 7.1784844,0 0,7.1784844 0,16 0,24.821516 7.1784844,32 16,32 24.821516,32 32,24.821516 32,16 32,7.1784844 24.821516,0 16,0 Z m 0,2.5390625 c 7.449065,0 13.460937,6.011872 13.460938,13.4609375 0,7.449065 -6.011873,13.460938 -13.460938,13.460938 C 8.5509345,29.460938 2.5390625,23.449065 2.5390625,16 2.5390625,8.5509345 8.5509345,2.5390625 16,2.5390625 Z"
       id="path5247"
       inkscape:connector-curvature="0" />
    <g
       transform="matrix(0.61951919,0,0,0.57656306,0.93036138,0.56745481)"
       style="font-style:normal;font-weight:normal;font-size:27.5px;line-height:125%;font-family:sans-serif;letter-spacing:0px;word-spacing:0px;fill:#ffffff;fill-opacity:1;stroke:none;stroke-width:1px;stroke-linecap:butt;stroke-linejoin:miter;stroke-opacity:1"
       id="flowRoot5249">
      <path
         d="m 22.418701,30.405364 q 0,1.396485 -0.510254,2.672119 -0.510254,1.275635 -1.396484,2.148438 -0.966797,0.939941 -2.30957,1.450195 -1.329346,0.496826 -3.088379,0.496826 -1.638184,0 -3.155518,-0.349121 -1.517334,-0.335693 -2.5646972,-0.819092 l 0,-2.833252 0.1879883,0 q 1.1010739,0.698243 2.5781249,1.195069 1.477051,0.483398 2.900391,0.483398 0.953369,0 1.839599,-0.268554 0.899659,-0.268555 1.597901,-0.939942 0.59082,-0.577392 0.88623,-1.383056 0.308838,-0.805665 0.308838,-1.866456 0,-1.033935 -0.362549,-1.745605 -0.349121,-0.71167 -0.980224,-1.141357 -0.698243,-0.510254 -1.705323,-0.71167 -0.993652,-0.214844 -2.229004,-0.214844 -1.18164,0 -2.282714,0.161133 -1.087647,0.161132 -1.879883,0.322265 l 0,-10.299072 12.03125,0 0,2.349854 -9.439697,0 0,5.317382 q 0.577392,-0.05371 1.18164,-0.08057 0.604248,-0.02686 1.047363,-0.02686 1.624756,0 2.84668,0.281983 1.221924,0.268555 2.242432,0.966797 1.074219,0.738525 1.665039,1.906738 0.59082,1.168213 0.59082,2.927246 z"
         id="path5258"
         inkscape:connector-curvature="0"
         style="fill:#ffffff;fill-opacity:1" />
      <path
         d="m 40.062744,26.75302 q 0,5.384522 -1.691894,7.908936 -1.678467,2.510986 -5.223389,2.510986 -3.598633,0 -5.263672,-2.551269 -1.651611,-2.55127 -1.651611,-7.841797 0,-5.330811 1.678467,-7.868652 1.678466,-2.55127 5.236816,-2.55127 3.598633,0 5.250244,2.591553 1.665039,2.578125 1.665039,7.801513 z m -3.531494,6.096192 q 0.469971,-1.087647 0.631104,-2.55127 0.17456,-1.47705 0.17456,-3.544922 0,-2.041015 -0.17456,-3.544921 -0.161133,-1.503907 -0.644532,-2.55127 -0.46997,-1.033936 -1.289062,-1.557617 -0.805664,-0.523682 -2.081299,-0.523682 -1.262207,0 -2.094727,0.523682 -0.819091,0.523681 -1.30249,1.584472 -0.456543,0.993653 -0.631103,2.591553 -0.161133,1.597901 -0.161133,3.504639 0,2.094726 0.147705,3.504639 0.147705,1.409912 0.631103,2.524414 0.443116,1.047363 1.24878,1.5979 0.819091,0.550537 2.161865,0.550537 1.262207,0 2.094726,-0.523682 0.83252,-0.523681 1.289063,-1.584472 z"
         id="path5260"
         inkscape:connector-curvature="0"
         style="fill:#ffffff;fill-opacity:1" />
    </g>
  </g>
</svg>
